<svg xmlns="http://www.w3.org/2000/svg" width="1600" height="900" viewBox="0 0 1600 900" role="img" aria-label="hero background">
  <defs>
    <linearGradient id="sky" x1="0" x2="0" y1="0" y2="1">
      <stop offset="0" stop-color="#0b1a33"/>
      <stop offset="0.6" stop-color="#102b5c"/>
      <stop offset="1" stop-color="#071022"/>
    </linearGradient>
    <radialGradient id="glow" cx="65%" cy="30%" r="60%">
      <stop offset="0" stop-color="#9dd7ff" stop-opacity="0.40"/>
      <stop offset="1" stop-color="#9dd7ff" stop-opacity="0"/>
    </radialGradient>
  </defs>
  <rect width="1600" height="900" fill="url(#sky)"/>
  <rect width="1600" height="900" fill="url(#glow)"/>
  <!-- abstract mountains -->
  <path d="M0 640 L220 520 L380 600 L520 470 L720 620 L920 500 L1120 610 L1340 480 L1600 610 L1600 900 L0 900 Z" fill="#0f2a5c" opacity="0.85"/>
  <path d="M0 700 L200 610 L420 690 L610 560 L800 705 L980 600 L1200 720 L1400 620 L1600 700 L1600 900 L0 900 Z" fill="#081736" opacity="0.90"/>
  <!-- stars -->
  <g fill="#ffffff" opacity="0.7">
    <circle cx="180" cy="120" r="2"/><circle cx="420" cy="80" r="1.5"/><circle cx="760" cy="130" r="2"/>
    <circle cx="1040" cy="90" r="1.5"/><circle cx="1320" cy="140" r="2"/><circle cx="1480" cy="70" r="1.5"/>
  </g>
  <!-- forge spark accents -->
  <g>
    <circle cx="920" cy="360" r="6" fill="#f7d774" opacity="0.85"/>
    <circle cx="980" cy="410" r="4" fill="#f7d774" opacity="0.75"/>
    <circle cx="860" cy="420" r="3" fill="#f7d774" opacity="0.65"/>
  </g>
</svg>
