<svg xmlns="http://www.w3.org/2000/svg" width="160" height="160" viewBox="0 0 160 160" role="img" aria-label="controller icon">
  <defs><linearGradient id="bg" x1="0" x2="1" y1="0" y2="1"><stop offset="0" stop-color="#0b1a33"/><stop offset="1" stop-color="#143a7a"/></linearGradient></defs>
  <rect x="10" y="10" width="140" height="140" rx="28" fill="url(#bg)"/>
  <path d="M48 92c-12 0-22-9-22-20s10-20 22-20c9 0 16 5 20 11h24c4-6 11-11 20-11 12 0 22 9 22 20s-10 20-22 20c-10 0-18-6-21-14H70c-3 8-11 14-22 14z" fill="#ffffff" opacity="0.9"/>
  <rect x="46" y="70" width="20" height="6" rx="3" fill="#0b1a33"/><rect x="53" y="63" width="6" height="20" rx="3" fill="#0b1a33"/>
  <circle cx="106" cy="69" r="6" fill="#f7d774"/><circle cx="120" cy="78" r="6" fill="#9dd7ff"/>
</svg>
