<svg xmlns="http://www.w3.org/2000/svg" width="960" height="540" viewBox="0 0 960 540" role="img" aria-label="forge thumbnail">
  <defs>
    <linearGradient id="g" x1="0" x2="1" y1="0" y2="1">
      <stop offset="0" stop-color="#f7d774" stop-opacity="0.95"/>
      <stop offset="1" stop-color="#ffffff" stop-opacity="0.10"/>
    </linearGradient>
    <radialGradient id="r" cx="70%" cy="25%" r="70%">
      <stop offset="0" stop-color="#f7d774" stop-opacity="0.32"/>
      <stop offset="1" stop-color="#f7d774" stop-opacity="0"/>
    </radialGradient>
    <filter id="s" x="-20%" y="-20%" width="140%" height="140%">
      <feDropShadow dx="0" dy="18" stdDeviation="16" flood-color="#000" flood-opacity="0.35"/>
    </filter>
  </defs>
  <rect width="960" height="540" rx="36" fill="#0b1a33"/>
  <rect width="960" height="540" rx="36" fill="url(#r)"/>
  <!-- subtle grid -->
  <g opacity="0.12" stroke="#ffffff">
    <path d="M0 60 H960" /><path d="M0 120 H960" /><path d="M0 180 H960" /><path d="M0 240 H960" /><path d="M0 300 H960" /><path d="M0 360 H960" /><path d="M0 420 H960" /><path d="M0 480 H960" />
    <path d="M80 0 V540" /><path d="M160 0 V540" /><path d="M240 0 V540" /><path d="M320 0 V540" /><path d="M400 0 V540" /><path d="M480 0 V540" /><path d="M560 0 V540" /><path d="M640 0 V540" /><path d="M720 0 V540" /><path d="M800 0 V540" /><path d="M880 0 V540" />
  </g>
  
        <g filter="url(#s)">
          <path d="M260 330 C300 250, 360 240, 410 165 C455 100, 525 120, 600 80 L645 125 C560 195, 505 225, 455 275 C395 338, 330 360, 280 352 Z"
                fill="url(#g)" opacity="0.9"/>
          <path d="M360 350 L520 350 L495 410 L385 410 Z" fill="#ffffff" opacity="0.10"/>
          <path d="M400 330 L480 330 L470 360 L410 360 Z" fill="#ffffff" opacity="0.16"/>
          <g fill="#f7d774" opacity="0.9">
            <circle cx="590" cy="150" r="7"/><circle cx="625" cy="185" r="5"/><circle cx="560" cy="190" r="4"/>
          </g>
        </g>
        
</svg>
