<svg xmlns="http://www.w3.org/2000/svg" width="960" height="540" viewBox="0 0 960 540" role="img" aria-label="hogwarts thumbnail">
  <defs>
    <linearGradient id="g" x1="0" x2="1" y1="0" y2="1">
      <stop offset="0" stop-color="#94a3b8" stop-opacity="0.95"/>
      <stop offset="1" stop-color="#ffffff" stop-opacity="0.10"/>
    </linearGradient>
    <radialGradient id="r" cx="70%" cy="25%" r="70%">
      <stop offset="0" stop-color="#94a3b8" stop-opacity="0.32"/>
      <stop offset="1" stop-color="#94a3b8" stop-opacity="0"/>
    </radialGradient>
    <filter id="s" x="-20%" y="-20%" width="140%" height="140%">
      <feDropShadow dx="0" dy="18" stdDeviation="16" flood-color="#000" flood-opacity="0.35"/>
    </filter>
  </defs>
  <rect width="960" height="540" rx="36" fill="#0b1a33"/>
  <rect width="960" height="540" rx="36" fill="url(#r)"/>
  <!-- subtle grid -->
  <g opacity="0.12" stroke="#ffffff">
    <path d="M0 60 H960" /><path d="M0 120 H960" /><path d="M0 180 H960" /><path d="M0 240 H960" /><path d="M0 300 H960" /><path d="M0 360 H960" /><path d="M0 420 H960" /><path d="M0 480 H960" />
    <path d="M80 0 V540" /><path d="M160 0 V540" /><path d="M240 0 V540" /><path d="M320 0 V540" /><path d="M400 0 V540" /><path d="M480 0 V540" /><path d="M560 0 V540" /><path d="M640 0 V540" /><path d="M720 0 V540" /><path d="M800 0 V540" /><path d="M880 0 V540" />
  </g>
  
        <g filter="url(#s)">
          <path d="M160 360 L260 250 L360 320 L460 220 L560 320 L680 190 L820 330 L820 420 L160 420 Z" fill="url(#g)" opacity="0.55"/>
          <path d="M470 140 C520 180, 520 250, 470 300 C420 250, 420 180, 470 140 Z" fill="url(#g)" opacity="0.8"/>
          <path d="M470 120 L488 190 L470 198 L452 190 Z" fill="#ffffff" opacity="0.16"/>
          <path d="M470 198 L470 320" stroke="#ffffff" stroke-width="10" opacity="0.12" stroke-linecap="round"/>
          <circle cx="610" cy="120" r="60" fill="#94a3b8" opacity="0.14"/>
        </g>
        
</svg>
