<svg xmlns="http://www.w3.org/2000/svg" width="960" height="540" viewBox="0 0 960 540" role="img" aria-label="roblox thumbnail">
  <defs>
    <linearGradient id="g" x1="0" x2="1" y1="0" y2="1">
      <stop offset="0" stop-color="#9dd7ff" stop-opacity="0.95"/>
      <stop offset="1" stop-color="#ffffff" stop-opacity="0.10"/>
    </linearGradient>
    <radialGradient id="r" cx="70%" cy="25%" r="70%">
      <stop offset="0" stop-color="#9dd7ff" stop-opacity="0.32"/>
      <stop offset="1" stop-color="#9dd7ff" stop-opacity="0"/>
    </radialGradient>
    <filter id="s" x="-20%" y="-20%" width="140%" height="140%">
      <feDropShadow dx="0" dy="18" stdDeviation="16" flood-color="#000" flood-opacity="0.35"/>
    </filter>
  </defs>
  <rect width="960" height="540" rx="36" fill="#0b1a33"/>
  <rect width="960" height="540" rx="36" fill="url(#r)"/>
  <!-- subtle grid -->
  <g opacity="0.12" stroke="#ffffff">
    <path d="M0 60 H960" /><path d="M0 120 H960" /><path d="M0 180 H960" /><path d="M0 240 H960" /><path d="M0 300 H960" /><path d="M0 360 H960" /><path d="M0 420 H960" /><path d="M0 480 H960" />
    <path d="M80 0 V540" /><path d="M160 0 V540" /><path d="M240 0 V540" /><path d="M320 0 V540" /><path d="M400 0 V540" /><path d="M480 0 V540" /><path d="M560 0 V540" /><path d="M640 0 V540" /><path d="M720 0 V540" /><path d="M800 0 V540" /><path d="M880 0 V540" />
  </g>
  
        <g opacity="0.9">
          <rect x="120" y="270" width="70" height="110" rx="10" fill="url(#g)"/>
          <rect x="210" y="230" width="90" height="150" rx="12" fill="url(#g)" opacity="0.85"/>
          <rect x="320" y="255" width="75" height="125" rx="10" fill="url(#g)" opacity="0.8"/>
          <rect x="410" y="210" width="110" height="170" rx="14" fill="url(#g)" opacity="0.78"/>
          <rect x="540" y="245" width="80" height="135" rx="12" fill="url(#g)" opacity="0.82"/>
          <g transform="translate(650 170) rotate(18)">
            <rect x="-40" y="0" width="90" height="90" rx="16" fill="url(#g)"/>
            <rect x="-18" y="26" width="46" height="46" rx="10" fill="#ffffff" opacity="0.14"/>
          </g>
        </g>
        
</svg>
